<svg width="35" height="32" viewBox="0 0 35 32" fill="none" xmlns="http://www.w3.org/2000/svg">
<rect width="34.0392" height="32" rx="5.01961" fill="#ECF0F1"/>
<g clip-path="url(#clip0_59843_1722)">
<path d="M20.2993 16.7394C20.2993 17.2328 20.3729 17.7247 20.5145 18.1944L15.4657 23.2814C15.026 23.7244 14.7838 24.3133 14.7838 24.9404C14.7838 25.31 14.8679 25.6666 15.0268 25.9876H7.99159C7.58155 25.9876 7.24899 25.652 7.24899 25.2386V17.0009H6.68049C5.98288 17.0009 5.3737 16.5745 5.12799 15.9142C4.88189 15.2536 5.06265 14.5274 5.5885 14.0643L14.2642 5.78167C15.3296 4.76561 16.9971 4.76561 18.0617 5.78167L24.3938 11.8263C22.0705 12.235 20.2993 14.2825 20.2993 16.7394Z" fill="#1ABC9C"/>
<path fill-rule="evenodd" clip-rule="evenodd" d="M16.2952 24.1188C15.8452 24.572 15.8452 25.3096 16.2952 25.7632C16.7451 26.2168 17.4768 26.2168 17.9232 25.7632L18.2483 25.4386L19.604 26.8049C19.836 27.0388 20.2073 27.0388 20.4397 26.8049L22.4602 24.768C22.6922 24.5345 22.6922 24.1598 22.4602 23.9255L21.1049 22.5592L23.5197 20.122C24.0365 20.391 24.6254 20.5433 25.2467 20.5433C27.3305 20.5433 29.02 18.8405 29.02 16.7394C29.02 14.6382 27.3309 12.9355 25.2467 12.9355C23.1625 12.9355 21.4734 14.6386 21.4734 16.7394C21.4734 17.3657 21.6241 17.9594 21.8913 18.4804L16.2956 24.1188H16.2952ZM23.7951 16.7394C23.7951 15.932 24.4454 15.2764 25.2463 15.2764C26.0472 15.2764 26.6975 15.932 26.6975 16.7394C26.6975 17.5468 26.0472 18.2023 25.2463 18.2023C24.4454 18.2023 23.7951 17.5468 23.7951 16.7394Z" fill="#1ABC9C"/>
</g>
<defs>
<clipPath id="clip0_59843_1722">
<rect width="24" height="21.9608" fill="white" transform="translate(5.01959 5.01962)"/>
</clipPath>
</defs>
</svg>
